<?xml version="1.0" encoding="iso-8859-1"?>
<!-- Generator: Adobe Illustrator 19.0.0, SVG Export Plug-In . SVG Version: 6.00 Build 0)  -->
<svg xmlns="http://www.w3.org/2000/svg" xmlns:xlink="http://www.w3.org/1999/xlink" version="1.1" id="Capa_1" x="0px" y="0px" viewBox="0 0 512 512" style="enable-background:new 0 0 512 512;" xml:space="preserve" width="512px" height="512px">
<g>
	<g>
		<path d="M468.239,146.739l38.019-26.906L392.168,5.742l-26.906,38.019L289.037,0l-32.883,97.7    c-3.517,0.007-7.06,0.231-10.612,0.696c-25.283,3.31-47.115,17.862-59.897,39.926L5.64,449.036    c-9.515,16.424-6.785,37.269,6.635,50.689C20.346,507.797,31.101,512,41.964,512c7.202,0,14.453-1.847,21-5.64l310.714-180.004    c22.063-12.783,36.616-34.613,39.925-59.898c0.465-3.551,0.69-7.094,0.697-10.611l97.7-32.882L468.239,146.739z M305.826,44.275    l42.006,24.115l-36.213,51.171c-7.597-7.091-16.296-12.556-25.66-16.25L305.826,44.275z M383.821,262.56    c-2.089,15.958-11.274,29.737-25.2,37.805l-76.179,44.133l-40.701-40.701l-21.239,21.239l35.043,35.044l-88.609,51.333    l-28.072-28.072l-21.239,21.239l22.416,22.415l-92.134,53.375c-4.662,2.702-10.582,1.926-14.393-1.883    c-3.811-3.812-4.585-9.73-1.883-14.393l86.832-149.886l34.529,34.529l21.239-21.239l-40.187-40.187l51.333-88.609l50.47,50.471    l21.239-21.239l-56.128-56.128l10.675-18.427c8.068-13.926,21.847-23.111,37.805-25.201c2.277-0.297,4.548-0.445,6.802-0.445    c13.542,0,26.459,5.31,36.215,15.065l76.744,76.744C380.582,230.924,385.91,246.603,383.821,262.56z M370.937,178.802    l-37.738-37.739l62.913-88.898l63.724,63.724L370.937,178.802z M408.689,226.043c-3.694-9.365-9.158-18.064-16.249-25.661    l51.172-36.214l24.114,42.007L408.689,226.043z" fill="#91DC5A"/>
	</g>
</g>
<g>
</g>
<g>
</g>
<g>
</g>
<g>
</g>
<g>
</g>
<g>
</g>
<g>
</g>
<g>
</g>
<g>
</g>
<g>
</g>
<g>
</g>
<g>
</g>
<g>
</g>
<g>
</g>
<g>
</g>
</svg>
