<?xml version="1.0" encoding="iso-8859-1"?>
<!-- Generator: Adobe Illustrator 19.0.0, SVG Export Plug-In . SVG Version: 6.00 Build 0)  -->
<svg version="1.1" id="Capa_1" xmlns="http://www.w3.org/2000/svg" xmlns:xlink="http://www.w3.org/1999/xlink" x="0px" y="0px"
	 viewBox="0 0 511.999 511.999" style="enable-background:new 0 0 511.999 511.999;fill:#6D6D6D" xml:space="preserve">
<g>
	<g>
		<path d="M363.562,297.135l-21.205-21.205l84.821-84.821l-42.41-42.411l21.205-21.205l21.205,21.206l84.821-84.821L448.383,0.261
			l-84.821,84.821l21.206,21.206l-21.205,21.205l-42.411-42.411l-84.821,84.821l-21.205-21.205l42.41-42.411L151.509,0.261
			L45.483,106.288l106.026,106.026l42.411-42.411l21.205,21.205l-84.821,84.821l42.41,42.411l-22.272,22.272
			c-29.093-19.243-68.755-16.065-94.357,9.536L45.483,360.75l42.324,42.324l-23.358,23.168c-16.736-8.027-37.444-5.125-51.296,8.726
			c-17.537,17.538-17.537,46.077,0,63.616c17.538,17.537,46.076,17.538,63.616,0C90.561,484.792,93.5,464.2,85.6,447.502
			l23.412-23.222l42.497,42.497l10.602-10.603c25.601-25.601,28.779-65.263,9.535-94.357l22.272-22.272l42.411,42.411l84.821-84.821
			l21.205,21.205l-42.41,42.411l106.026,106.026l106.026-106.026L405.973,254.724L363.562,297.135z M448.383,42.672l21.205,21.205
			l-42.41,42.41l-21.205-21.205L448.383,42.672z M55.564,477.379c-5.846,5.847-15.358,5.847-21.205,0s-5.847-15.359,0-21.205
			c5.843-5.843,15.351-5.85,21.201-0.005l0.01,0.01C61.409,462.026,61.408,471.536,55.564,477.379z M149.693,422.55
			c-2.148-2.153-59.982-59.981-59.982-59.981c16.712-7.964,37.361-5.039,51.184,8.774l0.024,0.024
			C154.732,385.189,157.657,405.836,149.693,422.55z M87.893,106.288l63.616-63.615l21.205,21.205l-63.616,63.615L87.893,106.288z
			 M151.51,169.904l-21.206-21.206l63.616-63.615l21.205,21.205L151.51,169.904z M236.33,339.545l-63.615-63.616l148.436-148.436
			l63.615,63.616L236.33,339.545z M469.589,360.751l-63.616,63.615l-21.205-21.205l63.616-63.615L469.589,360.751z M363.562,381.956
			l-21.205-21.205l63.615-63.616l21.206,21.206L363.562,381.956z"/>
	</g>
</g>
<g>
</g>
<g>
</g>
<g>
</g>
<g>
</g>
<g>
</g>
<g>
</g>
<g>
</g>
<g>
</g>
<g>
</g>
<g>
</g>
<g>
</g>
<g>
</g>
<g>
</g>
<g>
</g>
<g>
</g>
</svg>
