<?xml version="1.0" encoding="iso-8859-1"?>
<!-- Generator: Adobe Illustrator 19.0.0, SVG Export Plug-In . SVG Version: 6.00 Build 0)  -->
<svg version="1.1" id="Capa_1" xmlns="http://www.w3.org/2000/svg" xmlns:xlink="http://www.w3.org/1999/xlink" x="0px" y="0px"
	 viewBox="0 0 512 512" style="enable-background:new 0 0 512 512;fill:#FFD038" xml:space="preserve">
<g>
	<g>
		<path d="M310.271,452h176.504L416.83,241c-65.099,0-256.323,0-321.66,0L25.225,452h176.504l-15,30H151v30h210v-30h-35.729
			L310.271,452z M425.004,361l20.221,61h-70.414l-12.133-61H425.004z M395.17,271l19.889,60h-58.348l-11.934-60H395.17z M271,271
			h43.19l11.934,60H271V271z M271,361h61.09l12.133,61H271V361z M197.811,271H241v60h-55.123L197.811,271z M137.189,422H66.775
			l20.221-61h62.326L137.189,422z M155.289,331H96.941l19.889-60h50.393L155.289,331z M167.777,422l12.133-61H241v61H167.777z
			 M220.27,482l15-30c8.422,0,31.836,0,41.459,0l15,30H220.27z"/>
	</g>
</g>
<g>
	<g>
		<rect x="241" width="30" height="61"/>
	</g>
</g>
<g>
	<g>
		<rect x="106" y="151" width="60" height="30"/>
	</g>
</g>
<g>
	<g>
		<rect x="346" y="151" width="60" height="30"/>
	</g>
</g>
<g>
	<g>
		<rect x="145.539" y="40.537" transform="matrix(0.7071 -0.7071 0.7071 0.7071 -2.8562 134.1779)" width="30" height="59.999"/>
	</g>
</g>
<g>
	<g>
		<rect x="321.456" y="55.542" transform="matrix(0.7071 -0.7071 0.7071 0.7071 53.0586 269.1779)" width="59.999" height="30"/>
	</g>
</g>
<g>
	<g>
		<path d="M256,91c-33.084,0-60,26.916-60,60s26.916,60,60,60s60-26.916,60-60S289.084,91,256,91z M256,181
			c-16.542,0-30-13.458-30-30s13.458-30,30-30s30,13.458,30,30S272.542,181,256,181z"/>
	</g>
</g>
<g>
</g>
<g>
</g>
<g>
</g>
<g>
</g>
<g>
</g>
<g>
</g>
<g>
</g>
<g>
</g>
<g>
</g>
<g>
</g>
<g>
</g>
<g>
</g>
<g>
</g>
<g>
</g>
<g>
</g>
</svg>
