<?xml version="1.0" encoding="iso-8859-1"?>
<!-- Generator: Adobe Illustrator 19.0.0, SVG Export Plug-In . SVG Version: 6.00 Build 0)  -->
<svg version="1.1" id="Capa_1" xmlns="http://www.w3.org/2000/svg" xmlns:xlink="http://www.w3.org/1999/xlink" x="0px" y="0px"
	 viewBox="0 0 512 512" style="enable-background:new 0 0 512 512;fill:#C26FF5" xml:space="preserve">
<g>
	<g>
		<path d="M391,422v30h-93.265l-21.182-85.433c19.355-8.016,37.749-20.378,53.693-36.321c32.634-32.633,52.592-78.853,45.422-121.73
			c35.221,9.995,74.923,1.385,103.071-26.763l32.868-32.867l-21.213-21.213l-32.868,32.867c-3.604,3.604-7.514,6.792-11.666,9.548
			L341.912,66.14c2.757-4.152,5.944-8.061,9.548-11.665l32.868-32.868L363.114,0.393l-32.868,32.868
			c-28.083,28.082-36.782,67.766-26.763,103.071c-14.646-2.449-29.845-1.638-44.628,1.661L205.305,30H121V0H0v90h121V60h65.695
			l43.5,87.725c-17.426,8.001-33.947,19.534-48.441,34.029c-32.816,32.815-52.68,79.217-45.37,122.056
			c-35.742-9.852-76.027-0.66-104.171,27.485l-31.82,31.82l21.213,21.213l31.82-31.82c3.961-3.961,8.304-7.419,12.93-10.38
			L170.08,445.851c-2.729,4.127-5.908,8.042-9.539,11.674l-32.869,32.869l21.213,21.213l32.868-32.869
			c27.869-27.868,36.759-67.633,26.686-103.098c13.157,2.211,26.292,1.797,39.319-0.548L274.265,482H391v30h121v-90H391z M91,60H30
			V30h61V60z M330.243,96.897l84.859,84.859c-22.777,3.207-46.311-3.884-63.643-21.216
			C334.125,143.206,327.037,119.672,330.243,96.897z M273.123,165.848c20.824-2.975,42.19,0.972,57.124,15.905
			c12.376,12.376,19.737,32.086,15.732,58.158l-73.89-73.89C272.434,165.968,272.778,165.898,273.123,165.848z M239.937,176.296
			l95.767,95.767c-4.387,8.966-9.964,17.649-16.612,25.814l-104.97-104.969C222.287,186.261,230.97,180.683,239.937,176.296z
			 M181.725,415.071l-84.321-84.322c23.666-3.213,46.706,4.28,63.137,20.711C177.854,368.773,184.912,392.513,181.725,415.071z
			 M238.879,346.151c-23.262,3.322-43.546-2.327-57.125-15.905c-12.346-12.346-19.743-32.033-15.732-58.159l73.891,73.891
			C239.568,346.031,239.224,346.101,238.879,346.151z M272.064,335.703l-95.767-95.767c4.387-8.966,9.965-17.649,16.612-25.814
			l104.969,104.969C289.713,325.738,281.03,331.316,272.064,335.703z M482,482h-61v-30h61V482z"/>
	</g>
</g>
<g>
</g>
<g>
</g>
<g>
</g>
<g>
</g>
<g>
</g>
<g>
</g>
<g>
</g>
<g>
</g>
<g>
</g>
<g>
</g>
<g>
</g>
<g>
</g>
<g>
</g>
<g>
</g>
<g>
</g>
</svg>
