<?xml version="1.0" encoding="iso-8859-1"?>
<!-- Generator: Adobe Illustrator 19.0.0, SVG Export Plug-In . SVG Version: 6.00 Build 0)  -->
<svg version="1.1" id="Capa_1" xmlns="http://www.w3.org/2000/svg" xmlns:xlink="http://www.w3.org/1999/xlink" x="0px" y="0px"
	 viewBox="0 0 512.001 512.001" style="enable-background:new 0 0 512.001 512.001;fill:#3082D3" xml:space="preserve">
<g>
	<g>
		<path d="M355.574,128.065c-43.56-62.73-87.749-114.303-88.192-114.818L256.001,0l-11.382,13.247
			c-0.441,0.514-44.63,52.088-88.192,114.818C96.756,213.997,66.499,279.414,66.499,322.5c0,104.491,85.01,189.502,189.501,189.502
			s189.501-85.01,189.501-189.502C445.502,279.414,415.245,213.997,355.574,128.065z M256.001,481.988
			c-87.942,0-159.489-71.547-159.489-159.489c0-69.087,106.206-211.754,159.489-276.171
			c53.283,64.418,159.489,207.085,159.489,276.171C415.49,410.441,343.944,481.988,256.001,481.988z"/>
	</g>
</g>
<g>
	<g>
		<path d="M379.45,310.868l-29.807,3.5c0.348,3.126,7.663,76.899-67.84,104.926l10.444,28.137
			c51.127-18.979,72.182-55.119,80.842-82.095C382.359,336.458,379.573,311.9,379.45,310.868z"/>
	</g>
</g>
<g>
</g>
<g>
</g>
<g>
</g>
<g>
</g>
<g>
</g>
<g>
</g>
<g>
</g>
<g>
</g>
<g>
</g>
<g>
</g>
<g>
</g>
<g>
</g>
<g>
</g>
<g>
</g>
<g>
</g>
</svg>
