<?xml version="1.0" encoding="iso-8859-1"?>
<!-- Generator: Adobe Illustrator 19.0.0, SVG Export Plug-In . SVG Version: 6.00 Build 0)  -->
<svg version="1.1" id="Capa_1" xmlns="http://www.w3.org/2000/svg" xmlns:xlink="http://www.w3.org/1999/xlink" x="0px" y="0px"
	 viewBox="0 0 512 512" style="enable-background:new 0 0 512 512;" xml:space="preserve">
<g>
	<g>
		<path d="M512,31H0v390h201.729l-15,30H151v30h210v-30h-35.73l-15-30H512V31z M220.271,451l15-30h41.459l15,30H220.271z M482,391
			H30v-30h452V391z M482,331H30V61h452V331z"/>
	</g>
</g>
<g>
	<g>
		<path d="M451,181V91h-90v30h-60v60h-36.238c4.062-14.31,6.238-29.406,6.238-45V91h-45c-90.981,0-165,74.019-165,165v45h45
			c35.237,0,67.925-11.109,94.758-30H361v30h90v-90h-90v30H233.186c7.621-9.215,14.263-19.268,19.762-30H331v-60h30v30H451z
			 M391,121h30v30h-30V121z M391,241h30v30h-30V241z M241,136c0,72.304-57.138,131.509-128.633,134.846l79.239-79.239
			l-21.213-21.213l-79.239,79.239C94.491,178.139,153.695,121,226,121h15V136z"/>
	</g>
</g>
<g>
</g>
<g>
</g>
<g>
</g>
<g>
</g>
<g>
</g>
<g>
</g>
<g>
</g>
<g>
</g>
<g>
</g>
<g>
</g>
<g>
</g>
<g>
</g>
<g>
</g>
<g>
</g>
<g>
</g>
</svg>
