<?xml version="1.0" encoding="iso-8859-1"?>
<!-- Generator: Adobe Illustrator 19.0.0, SVG Export Plug-In . SVG Version: 6.00 Build 0)  -->
<svg version="1.1" id="Capa_1" xmlns="http://www.w3.org/2000/svg" xmlns:xlink="http://www.w3.org/1999/xlink" x="0px" y="0px"
	 viewBox="0 0 511.999 511.999" style="enable-background:new 0 0 511.999 511.999; fill:rgb(47, 193, 152)" xml:space="preserve">
<g>
	<g>
		<path d="M511.837,301.133V211.19H390.914v29.981H268.915c0.704-4.898,1.075-9.901,1.075-14.99v-14.99h-44.971
			c-29.335,0-55.892,12.105-74.952,31.576V211.19h14.99c41.776,0,77.924-24.541,94.795-59.962h64.374l29.981-59.962h36.706v29.981
			h120.923V31.304H390.913v29.982h-55.235l-29.981,59.962h-36.783c0.704-4.898,1.075-9.901,1.075-14.99v-14.99h-44.971
			c-10.343,0-20.452,1.494-30.116,4.38c0.088-1.449,0.135-2.909,0.135-4.38c0-48.63-49.254-83.753-51.351-85.224L135.076,0
			l-8.611,6.042c-2.098,1.471-51.351,36.595-51.351,85.224c0,1.471,0.047,2.931,0.135,4.38c-9.664-2.886-19.772-4.38-30.116-4.38
			H0.162v14.99c0,57.86,47.073,104.933,104.933,104.933h14.99v31.576c-19.061-19.471-45.617-31.576-74.952-31.576H0.162v14.99
			c0,57.86,47.073,104.933,104.933,104.933h14.99v31.576c-19.061-19.471-45.617-31.576-74.952-31.576H0.162v14.99
			c0,57.86,47.073,104.933,104.933,104.933h14.99v60.961h29.981v-60.961h14.99c41.775,0,77.924-24.541,94.795-59.962h45.845
			l29.981,59.962h55.236v29.981h120.923v-89.943H390.914v29.981h-36.706l-29.981-59.962h-55.312
			c0.704-4.898,1.075-9.901,1.075-14.991v-14.99h-44.971c-29.335,0-55.892,12.105-74.952,31.576v-31.576h14.99
			c41.776,0,77.924-24.541,94.795-59.962h131.062v29.981H511.837z M420.895,241.172h60.961v29.981h-60.961V241.172z M420.895,61.286
			h60.961v29.981h-60.961V61.286z M105.095,301.134c-36.196,0-66.481-25.793-73.446-59.962h13.484
			c36.196,0,66.481,25.793,73.446,59.962H105.095z M105.095,421.058c-36.196,0-66.481-25.793-73.446-59.962h13.484
			c36.196,0,66.481,25.793,73.446,59.962H105.095z M420.895,421.058h60.961v29.981h-60.961V421.058z M225.019,360.996h13.484
			c-6.966,34.169-37.25,60.062-73.446,60.062h-13.484C158.538,386.888,188.824,360.996,225.019,360.996z M225.019,121.148h13.484
			c-6.965,34.169-37.25,60.062-73.446,60.062h-14.99v-7.908c7.996-6.951,22.221-20.773,32.538-38.909
			C195.106,125.783,209.706,121.148,225.019,121.148z M120.086,181.21h-14.99c-36.196,0-66.481-25.793-73.446-59.962h13.484
			c15.314,0,29.913,4.535,42.414,13.145c10.316,18.136,24.542,31.959,32.538,38.909V181.21z M135.077,146.4
			c-11.511-10.958-29.982-32.129-29.982-55.133c0-22.975,18.577-43.282,29.955-53.563c11.372,10.326,30.007,30.734,30.007,53.563
			C165.057,114.275,146.579,135.45,135.077,146.4z M165.057,301.134h-13.484c6.966-34.169,37.251-60.062,73.446-60.062h13.484
			C231.538,275.241,201.253,301.134,165.057,301.134z"/>
	</g>
</g>
<g>
</g>
<g>
</g>
<g>
</g>
<g>
</g>
<g>
</g>
<g>
</g>
<g>
</g>
<g>
</g>
<g>
</g>
<g>
</g>
<g>
</g>
<g>
</g>
<g>
</g>
<g>
</g>
<g>
</g>
</svg>
